<svg width="18" height="18" viewBox="0 0 18 18" fill="none" xmlns="http://www.w3.org/2000/svg">
<g id="presence=focus">
<rect x="1" y="1" width="16" height="16" rx="8" fill="white"/>
<path id="Vector" d="M9 16C5.13401 16 2 12.866 2 9C2 5.13401 5.13401 2 9 2C12.866 2 16 5.13401 16 9C16 12.866 12.866 16 9 16ZM9 13.6667C11.5773 13.6667 13.6667 11.5773 13.6667 9C13.6667 6.42267 11.5773 4.33333 9 4.33333C6.42267 4.33333 4.33333 6.42267 4.33333 9C4.33333 11.5773 6.42267 13.6667 9 13.6667ZM9 11.3333C7.71134 11.3333 6.66667 10.2887 6.66667 9C6.66667 7.71134 7.71134 6.66667 9 6.66667C10.2887 6.66667 11.3333 7.71134 11.3333 9C11.3333 10.2887 10.2887 11.3333 9 11.3333Z" fill="#8270DB"/>
<rect x="1" y="1" width="16" height="16" rx="8" stroke="white" stroke-width="2"/>
</g>
</svg>
